PathFileType	4	(x/y/z)	TRC_MarkerData\Passive\Passive_Pref0003.trc
DataRate	CameraRate	NumFrames	NumMarkers	Units	OrigDataRate	OrigDataStartFrame	OrigNumFrames
240	240	4	50	mm	240	38	300
Frame#	Time	R_AC			L_AC			HEAD			STERN			C7			L_IC			R_IC			L_ASIS			R_ASIS			L_GT			R_GT			L_PSIS			R_PSIS			SACRAL			L_LAT_KNEE			L_MED_KNEE			R_LAT_KNEE			R_MED_KNEE			L_LAT_ANK			L_MED_ANK			R_LAT_ANK			R_MED_ANK			L_THIGH_PROX_POST			L_THIGH_PROX_ANT			L_THIGH_DIST_ANT			L_THIGH_DIST_POST			R_THIGH_PROX_POST			R_THIGH_PROX_ANT			R_THIGH_DIST_ANT			R_THIGH_DIST_POST			L_SHANK_PROX_POST			L_SHANK_PROX_ANT			L_SHANK_DIST_ANT			L_SHANK_DIST_POST			R_SHANK_PROX_POST			R_SHANK_PROX_ANT			R_SHANK_DIST_ANT			R_SHANK_DIST_POST			L_HEEL_LAT			L_HEEL_SUP			L_HEEL_MED			R_HEEL_LAT			R_HEEL_SUP			R_HEEL_MED			L_1ST_MET			L_5TH_MET			L_TOE			R_1ST_MET			R_5TH_MET			R_TOE			
		X1	Y1	Z1	X2	Y2	Z2	X3	Y3	Z3	X4	Y4	Z4	X5	Y5	Z5	X6	Y6	Z6	X7	Y7	Z7	X8	Y8	Z8	X9	Y9	Z9	X10	Y10	Z10	X11	Y11	Z11	X12	Y12	Z12	X13	Y13	Z13	X14	Y14	Z14	X15	Y15	Z15	X16	Y16	Z16	X17	Y17	Z17	X18	Y18	Z18	X19	Y19	Z19	X20	Y20	Z20	X21	Y21	Z21	X22	Y22	Z22	X23	Y23	Z23	X24	Y24	Z24	X25	Y25	Z25	X26	Y26	Z26	X27	Y27	Z27	X28	Y28	Z28	X29	Y29	Z29	X30	Y30	Z30	X31	Y31	Z31	X32	Y32	Z32	X33	Y33	Z33	X34	Y34	Z34	X35	Y35	Z35	X36	Y36	Z36	X37	Y37	Z37	X38	Y38	Z38	X39	Y39	Z39	X40	Y40	Z40	X41	Y41	Z41	X42	Y42	Z42	X43	Y43	Z43	X44	Y44	Z44	X45	Y45	Z45	X46	Y46	Z46	X47	Y47	Z47	X48	Y48	Z48	X49	Y49	Z49	X50	Y50	Z50	

38	0.15468	-700.97	1508.2	424.32	-713.15	1527	31.291	-594.44	1818.8	242.41	-606.7	1479.2	228.64	-750.73	1563.2	229.63	-698.75	1071.8	74.791	-706.72	1094.3	413.67	-627.07	1018	113.91	-641.57	1003.5	385.35	-705.13	938.42	54.88	-744.92	940.45	426.12	-845.85	1039	186.57	-836.03	1041.8	295.69	-853.72	1017	242.74	-586.56	553.87	107.12	-585.4	566.09	243.75	-832.67	533.73	402.66	-795.49	513.94	275.6	-547.83	110.89	130.34	-556.25	113.11	211.81	-1179.6	235.93	338.07	-1133.7	225.49	244.03	-696.17	781.84	75.494	-629.99	791.38	71.892	-613.88	718.48	84.642	-678.39	711.19	87.851	-798.17	775.76	417.13	-732.54	763.91	426.15	-751.21	691.76	418.68	-817.17	703.46	406.34	-570.83	502.82	116.56	-533.94	526.56	132.23	-523.84	477.43	140.42	-565.09	449.06	123.08	-989.45	475.02	378.94	-939.54	432.63	404.41	-986.77	376.77	390.23	-1037.7	416.91	366.99	-597.29	33.714	128.81	-612.96	59.696	161.87	-604.11	29.914	195.07	-1249.5	271.36	296.2	-1221.5	287.98	265.66	-1232.6	262.54	232.34	-387.73	68.31	244.85	-391.02	59.751	138.39	-336.22	88.027	226.09	-1135.7	62.043	254.92	-1184	82.354	356.22	-1114	34.914	309.46
39	0.15886	-694.94	1509.3	423.93	-707.08	1528	30.92	-588.67	1819.8	242.01	-600.76	1480.2	228.28	-744.78	1564.2	229.23	-693.01	1072.9	74.66	-700.89	1095.3	413.46	-621.25	1019.1	113.58	-635.68	1004.5	384.91	-699.56	939.62	54.634	-738.45	940.97	425.86	-839.83	1040.2	186.63	-830.18	1042.8	295.83	-847.88	1018	242.81	-582.72	554.19	106.19	-581.35	566.59	242.78	-821.47	533.05	403.28	-783.91	513.14	276.06	-547.17	110.88	130.17	-555.58	113.17	211.36	-1171	239.49	338.82	-1125.2	228.09	244.84	-691.14	782.97	75.022	-624.81	792.27	71.198	-609.07	719.21	83.907	-673.61	712.28	87.153	-789.72	775.18	417.37	-723.93	764.11	426.18	-741.78	691.75	418.95	-807.92	702.65	406.81	-567.35	503.03	115.69	-530.29	526.52	131.28	-520.54	477.31	139.54	-562	449.22	122.32	-978.08	476	379.55	-928.67	433.06	405.08	-976.54	377.74	390.94	-1027	418.44	367.63	-597.16	33.873	128.81	-612.72	59.913	161.87	-603.96	30.143	195.07	-1240.3	276.19	296.73	-1211.7	292.21	266.31	-1223.6	267.02	232.99	-387.25	67.548	244.52	-390.73	58.807	138.07	-335.65	86.899	225.65	-1130.1	64.202	256.12	-1178.3	85.736	357.04	-1109.2	35.695	310.72
40	0.16304	-688.95	1510.5	423.57	-701.02	1529	30.571	-582.9	1820.8	241.62	-594.84	1481.2	227.95	-738.86	1565.2	228.85	-687.29	1074	74.525	-695.14	1096.4	413.25	-615.46	1020.2	113.28	-629.87	1005.5	384.49	-694	940.81	54.402	-732.03	941.53	425.61	-833.86	1041.4	186.66	-824.4	1043.8	295.93	-842.08	1019	242.85	-578.98	554.49	105.33	-577.42	567.06	241.88	-810.21	532.43	403.87	-772.29	512.45	276.46	-546.53	110.87	130.02	-554.95	113.23	210.92	-1162.2	243.02	339.52	-1116.5	230.65	245.59	-686.13	784.09	74.558	-619.66	793.13	70.569	-604.31	719.92	83.238	-668.86	713.35	86.487	-781.28	774.65	417.6	-715.33	764.35	426.23	-732.36	691.8	419.23	-798.66	701.9	407.27	-563.97	503.23	114.88	-526.74	526.46	130.39	-517.33	477.19	138.72	-559	449.38	121.6	-966.61	477	380.12	-917.67	433.52	405.72	-966.16	378.74	391.61	-1016.2	419.97	368.23	-597.04	34.03	128.81	-612.49	60.122	161.87	-603.81	30.365	195.07	-1231	280.81	297.21	-1201.8	296.25	266.88	-1214.4	271.25	233.6	-386.8	66.831	244.21	-390.47	57.922	137.78	-335.11	85.832	225.24	-1123.9	66.42	257.41	-1172	89.171	357.96	-1103.9	36.712	312.09
41	0.16722	-683.02	1511.6	423.23	-694.95	1530	30.245	-577.13	1821.8	241.24	-588.95	1482.2	227.65	-732.97	1566.2	228.49	-681.59	1075.1	74.386	-689.47	1097.4	413.05	-609.69	1021.3	113	-624.13	1006.5	384.09	-688.43	941.97	54.186	-725.68	942.12	425.38	-827.92	1042.6	186.68	-818.66	1044.7	296.01	-836.31	1020	242.86	-575.35	554.78	104.54	-573.59	567.51	241.04	-798.9	531.89	404.43	-760.65	511.88	276.8	-545.91	110.88	129.89	-554.36	113.29	210.48	-1153.1	246.52	340.15	-1107.6	233.19	246.27	-681.13	785.19	74.104	-614.54	793.97	70.008	-599.6	720.6	82.638	-664.16	714.42	85.857	-772.84	774.17	417.81	-706.75	764.66	426.28	-722.93	691.91	419.5	-789.39	701.21	407.7	-560.68	503.42	114.13	-523.29	526.41	129.58	-514.21	477.08	137.96	-556.08	449.53	120.94	-955.03	478	380.66	-906.56	434.01	406.31	-955.63	379.75	392.24	-1005.2	421.49	368.78	-596.92	34.185	128.81	-612.28	60.326	161.87	-603.66	30.582	195.08	-1221.5	285.19	297.62	-1191.8	300.08	267.36	-1205	275.2	234.16	-386.38	66.157	243.93	-390.21	57.095	137.51	-334.61	84.824	224.87	-1117.3	68.678	258.77	-1165.1	92.636	359	-1097.9	37.962	313.55
